<svg width="96" height="97" viewBox="0 0 96 97" fill="none" xmlns="http://www.w3.org/2000/svg">
<path d="M27.5432 3.59259C27.5432 1.60848 25.9347 0 23.9506 0C21.9665 0 20.358 1.60848 20.358 3.59259V11.1574C13.4634 11.7095 8.93725 13.0644 5.61194 16.3897C2.28664 19.7151 0.931701 24.2412 0.379639 31.1358H95.4226C94.8708 24.2412 93.5157 19.7151 90.1904 16.3897C86.8651 13.0644 82.3389 11.7095 75.4445 11.1574V3.59259C75.4445 1.60848 73.8359 0 71.8519 0C69.8678 0 68.2593 1.60848 68.2593 3.59259V10.8396C65.0724 10.7778 61.5004 10.7778 57.4815 10.7778H38.321C34.3019 10.7778 30.7299 10.7778 27.5432 10.8396V3.59259Z" fill="#000028"/>
<path fill-rule="evenodd" clip-rule="evenodd" d="M0 49.0986C0 45.0797 5.44261e-07 41.5077 0.0617932 38.3208H95.7407C95.8025 41.5077 95.8025 45.0797 95.8025 49.0986V58.6788C95.8025 76.7434 95.8025 85.7761 90.1904 91.3877C84.5788 96.9998 75.546 96.9998 57.4815 96.9998H38.321C20.2563 96.9998 11.224 96.9998 5.61197 91.3877C5.71027e-07 85.7761 0 76.7434 0 58.6788V49.0986ZM71.8519 58.6788C74.4975 58.6788 76.642 56.5343 76.642 53.8887C76.642 51.2431 74.4975 49.0986 71.8519 49.0986C69.2063 49.0986 67.0618 51.2431 67.0618 53.8887C67.0618 56.5343 69.2063 58.6788 71.8519 58.6788ZM71.8519 77.8393C74.4975 77.8393 76.642 75.6948 76.642 73.0492C76.642 70.4036 74.4975 68.2591 71.8519 68.2591C69.2063 68.2591 67.0618 70.4036 67.0618 73.0492C67.0618 75.6948 69.2063 77.8393 71.8519 77.8393ZM52.6914 53.8887C52.6914 56.5343 50.5468 58.6788 47.9013 58.6788C45.2557 58.6788 43.1111 56.5343 43.1111 53.8887C43.1111 51.2431 45.2557 49.0986 47.9013 49.0986C50.5468 49.0986 52.6914 51.2431 52.6914 53.8887ZM52.6914 73.0492C52.6914 75.6948 50.5468 77.8393 47.9013 77.8393C45.2557 77.8393 43.1111 75.6948 43.1111 73.0492C43.1111 70.4036 45.2557 68.2591 47.9013 68.2591C50.5468 68.2591 52.6914 70.4036 52.6914 73.0492ZM23.9506 58.6788C26.5961 58.6788 28.7408 56.5343 28.7408 53.8887C28.7408 51.2431 26.5961 49.0986 23.9506 49.0986C21.3051 49.0986 19.1605 51.2431 19.1605 53.8887C19.1605 56.5343 21.3051 58.6788 23.9506 58.6788ZM23.9506 77.8393C26.5961 77.8393 28.7408 75.6948 28.7408 73.0492C28.7408 70.4036 26.5961 68.2591 23.9506 68.2591C21.3051 68.2591 19.1605 70.4036 19.1605 73.0492C19.1605 75.6948 21.3051 77.8393 23.9506 77.8393Z" fill="#000028"/>
</svg>
