<svg width="97" height="102" viewBox="0 0 97 102" fill="none" xmlns="http://www.w3.org/2000/svg">
<path d="M85.925 94.1759C92.8435 90.4598 97 85.6949 97 80.5C97 74.9936 92.3304 69.9703 84.6504 66.1667C75.7696 61.7682 62.8642 59 48.5 59C34.1359 59 21.2303 61.7682 12.3496 66.1667C4.66982 69.9703 0 74.9936 0 80.5C0 86.0064 4.66982 91.0297 12.3496 94.8333C21.2303 99.2318 34.1359 102 48.5 102C63.567 102 77.0292 98.9542 85.925 94.1759Z" fill="#000028"/>
<path d="M55.2029 84.0282L55.2032 84.0281C73.2235 76.2983 84.5 54.961 84.5 36.7589C84.5 17.6804 67.9951 2.5 48 2.5C28.0049 2.5 11.5 17.6804 11.5 36.7589C11.5 54.961 22.7763 76.2983 40.7969 84.0281L40.7971 84.0282C45.3731 85.9906 50.6269 85.9906 55.2029 84.0282ZM55.2143 39.125C55.2143 43.1379 51.9758 46.375 48 46.375C44.0242 46.375 40.7857 43.1379 40.7857 39.125C40.7857 35.1123 44.0242 31.875 48 31.875C51.9758 31.875 55.2143 35.1123 55.2143 39.125Z" fill="#000028" stroke="#DAD9E6" stroke-width="5"/>
</svg>
