<svg width="120" height="97" viewBox="0 0 120 97" fill="none" xmlns="http://www.w3.org/2000/svg">
<path d="M113.975 60.625C113.788 59.8788 113.789 58.9462 114.348 58.3865C117.519 52.6038 119.385 46.075 119.385 39.1731C119.385 17.5346 100.917 0 78.3462 0C68.6462 0 59.6923 3.35769 52.6039 8.76731C75.9212 13.8038 93.2693 33.95 93.2693 57.8269C93.2693 64.5423 91.9635 71.0712 89.352 76.8538C93.0827 75.9212 96.627 74.4288 99.9846 72.3769C100.731 72.0038 101.477 71.8173 102.223 72.1904L114.162 76.4808C116.213 77.2269 118.265 75.175 117.706 72.9365L113.975 60.625Z" fill="#000028"/>
<path d="M41.0385 18.6538C18.4673 18.6538 0 36.1884 0 57.8269C0 64.7288 1.86538 71.2577 5.22308 77.0404C5.59615 77.7865 5.78269 78.5327 5.59615 79.2788L1.67885 91.7769C0.932692 94.0153 2.98461 96.0673 5.22308 95.3211L17.1615 91.0307C17.9077 90.8442 18.8404 90.8442 19.4 91.2173C25.7423 94.948 33.0173 97 41.0385 97C63.6096 97 82.0769 79.4653 82.0769 57.8269C82.0769 36.1884 63.6096 18.6538 41.0385 18.6538ZM18.6538 65.2884C14.55 65.2884 11.1923 61.9307 11.1923 57.8269C11.1923 53.723 14.55 50.3653 18.6538 50.3653C22.7577 50.3653 26.1154 53.723 26.1154 57.8269C26.1154 61.9307 22.7577 65.2884 18.6538 65.2884ZM41.0385 65.2884C36.9346 65.2884 33.5769 61.9307 33.5769 57.8269C33.5769 53.723 36.9346 50.3653 41.0385 50.3653C45.1423 50.3653 48.5 53.723 48.5 57.8269C48.5 61.9307 45.1423 65.2884 41.0385 65.2884ZM63.4231 65.2884C59.3192 65.2884 55.9615 61.9307 55.9615 57.8269C55.9615 53.723 59.3192 50.3653 63.4231 50.3653C67.5269 50.3653 70.8846 53.723 70.8846 57.8269C70.8846 61.9307 67.5269 65.2884 63.4231 65.2884Z" fill="#000028"/>
</svg>
