<svg width="41" height="41" viewBox="0 0 41 41" fill="none" xmlns="http://www.w3.org/2000/svg">
<path fill-rule="evenodd" clip-rule="evenodd" d="M41 20.5C41 31.8217 31.8217 41 20.5 41C9.17816 41 0 31.8217 0 20.5C0 9.17816 9.17816 0 20.5 0C31.8217 0 41 9.17816 41 20.5ZM20.5 11.7875C19.2263 11.7875 18.1938 12.82 18.1938 14.0938C18.1938 14.9429 17.5054 15.6312 16.6562 15.6312C15.8071 15.6312 15.1187 14.9429 15.1187 14.0938C15.1187 11.1218 17.5281 8.7125 20.5 8.7125C23.4719 8.7125 25.8812 11.1218 25.8812 14.0938C25.8812 15.551 25.3001 16.8756 24.3601 17.8432C24.1709 18.0377 23.9905 18.2181 23.8183 18.3901C23.3759 18.8321 22.9883 19.2194 22.6482 19.6564C22.1992 20.2333 22.0375 20.6574 22.0375 21.0125V22.55C22.0375 23.3991 21.3491 24.0875 20.5 24.0875C19.6509 24.0875 18.9625 23.3991 18.9625 22.55V21.0125C18.9625 19.6693 19.5877 18.582 20.2216 17.7678C20.6904 17.1653 21.2798 16.5769 21.7583 16.0996C21.9026 15.9556 22.0367 15.8217 22.1544 15.7005C22.5594 15.2836 22.8062 14.7191 22.8062 14.0938C22.8062 12.82 21.7737 11.7875 20.5 11.7875ZM20.5 30.75C21.6322 30.75 22.55 29.8322 22.55 28.7C22.55 27.5678 21.6322 26.65 20.5 26.65C19.3678 26.65 18.45 27.5678 18.45 28.7C18.45 29.8322 19.3678 30.75 20.5 30.75Z" fill="#000028"/>
</svg>
